<?xml version="1.0" encoding="utf-8"?>
<!-- Generator: Adobe Illustrator 22.1.0, SVG Export Plug-In . SVG Version: 6.00 Build 0)  -->
<svg version="1.1" id="レイヤー_2" xmlns="http://www.w3.org/2000/svg" xmlns:xlink="http://www.w3.org/1999/xlink" x="0px"
	 y="0px" viewBox="0 0 32 32" style="enable-background:new 0 0 32 32;" xml:space="preserve">
<style type="text/css">
	.st0{fill-rule:evenodd;clip-rule:evenodd;fill:#FFFFFF;}
	.st1{fill:#FFFFFF;}
	.st2{fill-rule:evenodd;clip-rule:evenodd;fill:#9FF054;}
	.st3{fill:none;}
	.st4{fill:#1929AB;}
	.st5{fill-rule:evenodd;clip-rule:evenodd;fill:#32A200;}
	.st6{fill-rule:evenodd;clip-rule:evenodd;fill:#FFB845;}
	.st7{fill:#34353A;}
	.st8{fill-rule:evenodd;clip-rule:evenodd;fill:#777777;}
	.st9{fill-rule:evenodd;clip-rule:evenodd;fill:#0099FF;}
	.st10{fill-rule:evenodd;clip-rule:evenodd;fill:#00FFCC;}
	.st11{fill:#9FF054;}
</style>
<path class="st0" d="M3,16c0,7.2,5.8,13,13,13s13-5.8,13-13S23.2,3,16,3S3,8.8,3,16z M16.6,24.3h-2.4v-2.4h2.4V24.3z M16.6,20.7
	h-2.4v-0.7c0-0.8,0.1-1.6,0.4-2.2c0.2-0.5,0.5-0.9,0.9-1.4c0.3-0.3,0.8-0.8,1.6-1.5c0.8-0.7,1.3-1.1,1.5-1.4c0.2-0.3,0.4-0.6,0.4-1
	c0-0.6-0.3-1.2-0.8-1.7c-0.6-0.5-1.2-0.7-2-0.7c-0.8,0-1.5,0.2-2,0.6c-0.5,0.4-0.9,1-1,1.8h-2.4c0.2-1.5,0.7-2.7,1.7-3.5
	s2.2-1.2,3.7-1.2c1.6,0,2.9,0.4,3.9,1.3c1,0.9,1.4,1.9,1.4,3.1c0,0.7-0.2,1.4-0.6,2c-0.4,0.6-1.1,1.4-2.1,2.3
	c-0.7,0.6-1.2,1.1-1.4,1.4c-0.2,0.3-0.4,0.6-0.5,1C16.6,19.2,16.6,19.9,16.6,20.7z"/>
</svg>
